<?xml version="1.0" encoding="utf-8"?>
<!-- Generator: Adobe Illustrator 16.0.0, SVG Export Plug-In . SVG Version: 6.00 Build 0)  -->
<!DOCTYPE svg PUBLIC "-//W3C//DTD SVG 1.1//EN" "http://www.w3.org/Graphics/SVG/1.1/DTD/svg11.dtd">
<svg version="1.1" id="Layer_1" xmlns="http://www.w3.org/2000/svg" xmlns:xlink="http://www.w3.org/1999/xlink" x="0px" y="0px"
	width="256px" height="301px" viewBox="0 0 256 301" style="enable-background:new 0 0 256 301;" xml:space="preserve">
	<path style="fill:#FFFFFF;" d="M78.4,0.9c-1.4,0-2.9,0.4-4.2,1.1c-4.2,2.3-5.8,7.8-3.4,12l9.5,17.2C57.4,45.3,42.1,69.6,42.1,97.2 c0,0.1,0,0.3,0,0.5c0,0.1,0,0.1,0,0.2c0,0.1,0,0.2,0,0.2v4.3c-4.4-5.1-10.9-8.3-18.1-8.3c-13.3,0-24,10.8-24,24v74 c0,13.3,10.8,24,24,24c7.2,0,13.7-3.2,18.1-8.3v10.4c0,14,11.4,25.4,25.4,25.4H74v32.9c0,13.3,10.8,24,24,24c13.3,0,24-10.8,24-24 v-32.9h11.2v32.9c0,13.3,10.8,24,24,24c13.3,0,24-10.8,24-24v-32.9h6.4c14,0,25.4-11.4,25.4-25.4v-10.4c4.4,5.1,10.9,8.3,18.1,8.3 c13.3,0,24-10.8,24-24v-74c0-13.3-10.8-24-24-24c-7.2,0-13.7,3.2-18.1,8.3v-4.2v-0.1c0-0.1,0-0.3,0-0.2c0-0.3,0-0.5,0-0.6 c0-27.7-15.2-51.9-38.2-66.1l9.6-17.2c2.3-4.2,0.8-9.6-3.4-12c-1.3-0.7-2.8-1.1-4.2-1.1c-3.1,0-6.2,1.6-7.8,4.5l-10,18 c-9.8-3.6-20.4-5.6-31.5-5.6c-11.1,0-21.7,2-31.5,5.6l-10-18C84.6,2.5,81.5,0.8,78.4,0.9L78.4,0.9z"/>
	<path style="fill:#A4C639;" d="M24,100.4c-9.9,0-17.8,7.9-17.8,17.8v74c0,9.9,7.9,17.8,17.8,17.8c9.9,0,17.8-7.9,17.8-17.8v-74 C41.8,108.2,33.9,100.4,24,100.4L24,100.4z"/>
	<path style="fill:#A4C639;" d="M231.2,100.4c-9.9,0-17.8,7.9-17.8,17.8v74c0,9.9,7.9,17.8,17.8,17.8S249,202,249,192.1v-74 C249,108.2,241.1,100.4,231.2,100.4L231.2,100.4z"/>
	<path style="fill:#A4C639;" d="M98,184.8c-9.9,0-17.8,7.9-17.8,17.8v74c0,9.9,7.9,17.8,17.8,17.8c9.9,0,17.8-7.9,17.8-17.8v-74 C115.8,192.7,107.9,184.8,98,184.8L98,184.8z"/>
	<path style="fill:#A4C639;" d="M157.2,184.8c-9.9,0-17.8,7.9-17.8,17.8v74c0,9.9,7.9,17.8,17.8,17.8s17.8-7.9,17.8-17.8v-74 C175,192.7,167.1,184.8,157.2,184.8L157.2,184.8z"/>
	<path style="fill:#A4C639;" d="M78.4,7.1c-0.4,0-0.8,0.1-1.2,0.3c-1.3,0.7-1.7,2.2-1,3.4l12.5,22.6C64.7,46,48.4,69.8,48.4,97.2 h158.5c0-27.3-16.3-51.1-40.4-63.7L179,10.9c0.7-1.3,0.3-2.7-1-3.4c-0.4-0.2-0.8-0.3-1.2-0.3c-0.9,0-1.8,0.4-2.2,1.3l-12.7,22.9 c-10.4-4.6-22-7.2-34.3-7.2s-23.9,2.6-34.3,7.2L80.7,8.4C80.2,7.6,79.3,7.1,78.4,7.1L78.4,7.1z"/>
	<path style="fill:#A4C639;" d="M48.4,103.4v114.8c0,10.6,8.5,19.2,19.2,19.2h120.2c10.6,0,19.2-8.5,19.2-19.2V103.4H48.4L48.4,103.4 z"/>
	<path style="fill:#FFFFFF;" d="M91.1,54.9c-3.6,0-6.6,3-6.6,6.6c0,3.6,3,6.6,6.6,6.6c3.6,0,6.6-3,6.6-6.6 C97.7,57.9,94.7,54.9,91.1,54.9L91.1,54.9z"/>
	<path style="fill:#FFFFFF;" d="M164.2,54.9c-3.6,0-6.6,3-6.6,6.6c0,3.6,3,6.6,6.6,6.6c3.6,0,6.6-3,6.6-6.6 C170.8,57.9,167.8,54.9,164.2,54.9L164.2,54.9z"/>
</svg>
